<svg width="14" height="14" viewBox="0 0 14 14" fill="none" xmlns="http://www.w3.org/2000/svg">
<circle cx="6.53109" cy="6.6263" r="6.35028" stroke="black" stroke-width="0.270225"/>
<path d="M6.53148 3.65356C7.14639 3.65356 7.73611 3.89784 8.17092 4.33265C8.60573 4.76745 8.85 5.35718 8.85 5.97209C8.85 8.55004 9.79039 9.05806 10.0444 9.05806H3.01855C3.27797 9.05806 4.21295 8.54463 4.21295 5.97209C4.21295 5.35718 4.45722 4.76745 4.89203 4.33265C5.32684 3.89784 5.91656 3.65356 6.53148 3.65356V3.65356Z" stroke="#000001" stroke-width="0.54045" stroke-linecap="round" stroke-linejoin="round"/>
<path d="M5.7207 9.50684C5.76742 9.68628 5.87235 9.84515 6.01906 9.95856C6.16577 10.072 6.34595 10.1335 6.53138 10.1335C6.7168 10.1335 6.89699 10.072 7.04369 9.95856C7.1904 9.84515 7.29533 9.68628 7.34205 9.50684" stroke="#000001" stroke-width="0.54045" stroke-linecap="round" stroke-linejoin="round"/>
</svg>
