<svg width="14" height="14" viewBox="0 0 14 14" fill="none" xmlns="http://www.w3.org/2000/svg">
<circle cx="7.05257" cy="6.6263" r="6.35028" stroke="black" stroke-width="0.270225"/>
<path d="M8.67359 5.27539L7.05225 7.97764" stroke="#000001" stroke-width="0.54045" stroke-linecap="round" stroke-linejoin="round"/>
<path d="M10.2952 7.9783C10.5176 7.44446 10.6048 6.86397 10.549 6.28834C10.4932 5.71271 10.2962 5.15976 9.9754 4.67856C9.6546 4.19737 9.21997 3.80281 8.71007 3.52993C8.20018 3.25704 7.6308 3.11426 7.05247 3.11426C6.47415 3.11426 5.90477 3.25704 5.39487 3.52993C4.88498 3.80281 4.45034 4.19737 4.12955 4.67856C3.80875 5.15976 3.61171 5.71271 3.55593 6.28834C3.50015 6.86397 3.58734 7.44446 3.80978 7.9783H10.2952Z" stroke="#000001" stroke-width="0.54045" stroke-linecap="round" stroke-linejoin="round"/>
</svg>
